<svg id="Layer_6" data-name="Layer 6" xmlns="http://www.w3.org/2000/svg" viewBox="0 0 172 53.71"><defs><style>.cls-1{fill:#fff;}</style></defs><path class="cls-1" d="M734,3232.64h10.1l-2.89,1.45h-1.44v5.77h-1.44v-5.77H734Z" transform="translate(-734 -3186.14)"/><path class="cls-1" d="M744.15,3237v2.89h-1.44v-4.33h8.65v-1.44h-8.65l2.88-1.45h5.77a1.28,1.28,0,0,1,1.45,1.45v1.44a1.27,1.27,0,0,1-1.42,1.44h-4l5.28,2.89h-3Z" transform="translate(-734 -3186.14)"/><path class="cls-1" d="M762.4,3239.86h-7.22a1.28,1.28,0,0,1-1.44-1.45v-5.77h1.44v5.77h7.22v-5.77h1.44v5.77A1.28,1.28,0,0,1,762.4,3239.86Z" transform="translate(-734 -3186.14)"/><path class="cls-1" d="M771.83,3234.09h-5.77v1.44h7.21a1.28,1.28,0,0,1,1.45,1.44v1.44a1.28,1.28,0,0,1-1.45,1.45h-8.65l2.88-1.45h5.77V3237h-7.21a1.27,1.27,0,0,1-1.44-1.44v-1.44a1.28,1.28,0,0,1,1.44-1.45h8.66Z" transform="translate(-734 -3186.14)"/><path class="cls-1" d="M775,3232.64h10.1l-2.88,1.45h-1.45v5.77h-1.44v-5.77H775Z" transform="translate(-734 -3186.14)"/><path class="cls-1" d="M792.27,3232.64h10.09l-2.88,1.45H798v5.77h-1.45v-5.77h-4.32Z" transform="translate(-734 -3186.14)"/><path class="cls-1" d="M804,3232.64v2.89h7.22v-2.89h1.44v7.22h-1.44V3237H804v2.89H802.6v-7.22Z" transform="translate(-734 -3186.14)"/><path class="cls-1" d="M824.34,3232.64l-2.88,1.45h-7.22v-1.45Zm-10.1,2.89h10.1l-2.88,1.44h-5.77v1.44h8.65l-2.88,1.45h-7.22Z" transform="translate(-734 -3186.14)"/><path class="cls-1" d="M831.56,3234.09l2.88-1.45h5.77a1.28,1.28,0,0,1,1.44,1.45v1.44a1.27,1.27,0,0,1-1.44,1.44H833v2.89h-1.44v-4.33h8.65v-1.44Z" transform="translate(-734 -3186.14)"/><path class="cls-1" d="M843.74,3237v2.89H842.3v-4.33H851v-1.44H842.3l2.88-1.45H851a1.28,1.28,0,0,1,1.45,1.45v1.44A1.27,1.27,0,0,1,851,3237h-4l5.28,2.89h-3Z" transform="translate(-734 -3186.14)"/><path class="cls-1" d="M854.74,3232.64H862a1.28,1.28,0,0,1,1.45,1.45v4.32a1.28,1.28,0,0,1-1.45,1.45h-7.21a1.28,1.28,0,0,1-1.44-1.45v-4.32A1.28,1.28,0,0,1,854.74,3232.64Zm0,1.45v4.32H862v-4.32Zm4.33,2.88h-1.44v-1.44h1.44Z" transform="translate(-734 -3186.14)"/><path class="cls-1" d="M864.56,3238.41v-4.32a1.28,1.28,0,0,1,1.44-1.45h8.66l-2.89,1.45H866v4.32h8.66l-2.89,1.45H866A1.28,1.28,0,0,1,864.56,3238.41Z" transform="translate(-734 -3186.14)"/><path class="cls-1" d="M885.15,3232.64l-2.89,1.45h-7.21v-1.45Zm-10.1,2.89h10.1l-2.89,1.44h-5.77v1.44h8.66l-2.89,1.45h-7.21Z" transform="translate(-734 -3186.14)"/><path class="cls-1" d="M892.63,3234.09h-5.77v1.44h7.22a1.27,1.27,0,0,1,1.44,1.44v1.44a1.28,1.28,0,0,1-1.44,1.45h-8.66l2.88-1.45h5.78V3237h-7.22a1.27,1.27,0,0,1-1.44-1.44v-1.44a1.28,1.28,0,0,1,1.44-1.45h8.66Z" transform="translate(-734 -3186.14)"/><path class="cls-1" d="M903.11,3234.09h-5.77v1.44h7.22A1.27,1.27,0,0,1,906,3237v1.44a1.28,1.28,0,0,1-1.44,1.45H895.9l2.89-1.45h5.77V3237h-7.22a1.27,1.27,0,0,1-1.44-1.44v-1.44a1.28,1.28,0,0,1,1.44-1.45H906Z" transform="translate(-734 -3186.14)"/><path class="cls-1" d="M812.05,3189.21a13.22,13.22,0,0,0-4-2.25,14.54,14.54,0,0,0-4.86-.82H746.6a14.48,14.48,0,0,0-4.9.82,13.25,13.25,0,0,0-4,2.25,10.7,10.7,0,0,0-2.71,3.34,8.73,8.73,0,0,0-1,4.09v19.12a8.69,8.69,0,0,0,1,4.08,10.71,10.71,0,0,0,2.71,3.35,13.25,13.25,0,0,0,4,2.25,14.43,14.43,0,0,0,4.9.81h56.55a14.49,14.49,0,0,0,4.86-.81,13.22,13.22,0,0,0,4-2.25,10.88,10.88,0,0,0,2.71-3.35,8.8,8.8,0,0,0,1-4.08v-19.12a8.84,8.84,0,0,0-1-4.09A10.84,10.84,0,0,0,812.05,3189.21Zm-65.52,2.47h56.55a7.12,7.12,0,0,1,2.36.38,6.47,6.47,0,0,1,1.9,1,5.07,5.07,0,0,1,1.3,1.56,3.93,3.93,0,0,1,.47,1.87v19.16a4,4,0,0,1-.47,1.87,5.07,5.07,0,0,1-1.3,1.56,7.07,7.07,0,0,1-1.89,1.06,6.45,6.45,0,0,1-2.37.42H746.53a6.49,6.49,0,0,1-2.37-.42,7.07,7.07,0,0,1-1.89-1.06,5.07,5.07,0,0,1-1.3-1.56,4,4,0,0,1-.47-1.87v-19.16a4,4,0,0,1,.47-1.87,5.07,5.07,0,0,1,1.3-1.56,6.47,6.47,0,0,1,1.9-1A7.17,7.17,0,0,1,746.53,3191.68Z" transform="translate(-734 -3186.14)"/><path class="cls-1" d="M768.16,3208.65a.86.86,0,0,0,.25.14.93.93,0,0,0,.29.05H781a.88.88,0,0,0,.29-.05,1.1,1.1,0,0,0,.26-.15.5.5,0,0,0,.15-.17.49.49,0,0,0,0-.2v-4.18a.49.49,0,0,0,0-.2.86.86,0,0,0-.16-.18.89.89,0,0,0-.24-.13.94.94,0,0,0-.3,0H768.7a.94.94,0,0,0-.3,0,.86.86,0,0,0-.25.14.65.65,0,0,0-.15.18.41.41,0,0,0,0,.19v4.18a.45.45,0,0,0,0,.19A.58.58,0,0,0,768.16,3208.65Z" transform="translate(-734 -3186.14)"/><rect class="cls-1" x="90.17" y="34.6" width="81.81" height="5.6"/><rect class="cls-1" x="90.17" y="17.4" width="77.83" height="5.48"/><polygon class="cls-1" points="90.17 0.09 90.17 5.68 171.99 5.68 171.99 0.14 90.17 0.09"/></svg>