<svg id="Layer_1" data-name="Layer 1" xmlns="http://www.w3.org/2000/svg" viewBox="0 0 128 81.05"><defs><style>.cls-1{fill:#fff;}</style></defs><path class="cls-1" d="M1313.77,420.5a35.79,35.79,0,0,0-2.79-11.2,22.51,22.51,0,0,0-13-12.59,35.38,35.38,0,0,0-18.93-1.39c-8.14,1.43-14.51,5.61-18.63,12.88a35.08,35.08,0,0,0-3.88,25.88c1.66,7.29,5.34,13.3,12,17.21a31.58,31.58,0,0,0,14.11,4.07c6.64.49,13.16,0,19.29-2.85,7.28-3.38,11.09-9.11,11.34-17.17,0-.66-.07-.95-.84-.94-4.08,0-8.16,0-12.24,0-.58,0-.88.09-1,.78a7.58,7.58,0,0,1-4.31,6,17.62,17.62,0,0,1-9,1.73c-7.88-.17-12.92-5-13.24-12.5,0-1.15.26-1.34,1.32-1.33q19.24,0,38.48,0c.53,0,1.08.12,1.48-.37V421C1313.74,420.92,1313.78,420.69,1313.77,420.5Zm-41.3-2c1.37-5.51,3.93-9.93,9.61-11.54,4.8-1.36,9.44-1,13.19,2.78,2.13,2.16,2.93,4.95,3.24,7.91.06.6,0,.87-.75.87C1289.39,418.51,1281,418.52,1272.47,418.52Z" transform="translate(-1186 -374.47)"/><path class="cls-1" d="M1243.28,411.75a19.48,19.48,0,0,0-4.85-1.08,15.71,15.71,0,0,0,5.68-2.47,13.21,13.21,0,0,0,5.48-9.95c.67-6.94-.71-13.29-6-18.22a21.28,21.28,0,0,0-14.64-5.46c-14-.14-28-.05-42-.1-1,0-.92.47-.92,1.13q0,38.53,0,77.07c0,.87.12,1.2,1.11,1.19q20-.06,40,0a31.44,31.44,0,0,0,10.19-1.61c6.23-2.12,11.18-5.81,13.52-12.15a28.37,28.37,0,0,0-.37-21.07A12.59,12.59,0,0,0,1243.28,411.75Zm-38-23.18H1226c3.72,0,5.8,1.6,6.6,5.29a16,16,0,0,1-.56,8.72,5.07,5.07,0,0,1-5,3.64c-7.37.1-14.74,0-22.12.07-.55,0-.7-.17-.69-.7,0-5.42,0-10.83,0-16.25C1204.21,388.46,1204.7,388.57,1205.25,388.57Zm30.17,43.89c-.87,4.44-3.63,7.06-8.29,7.19-7.4.21-14.82.08-22.24.11-.59,0-.66-.24-.66-.74,0-6.58,0-13.16,0-19.74,0-.74.33-.77.9-.77,3.7,0,7.41,0,11.12,0H1226c5.32,0,8.5,2.63,9.44,7.85A16.41,16.41,0,0,1,1235.42,432.46Z" transform="translate(-1186 -374.47)"/><path class="cls-1" d="M1270.17,389q15.3,0,30.59,0c.92,0,1.08-.32,1.07-1.14,0-2.54-.06-5.08,0-7.61,0-.9-.26-1.09-1.11-1.08-5.08,0-10.15,0-15.23,0s-10.15,0-15.23,0c-1,0-1.24.3-1.22,1.26.07,2.5.06,5,0,7.49C1269,388.8,1269.33,389,1270.17,389Z" transform="translate(-1186 -374.47)"/></svg>