<svg id="Layer_1" data-name="Layer 1" xmlns="http://www.w3.org/2000/svg" viewBox="0 0 119.67 128"><defs><style>.cls-1{fill:#fff;}</style></defs><path class="cls-1" d="M1297.83,657.81c0-.92.09-.82-.82-.82h-14.19c-1,0-.92.13-.92-.93V593.94c0-.23,0-.46,0-.69a.24.24,0,0,0-.27-.25h-63.3a.23.23,0,0,1-.23-.21c0-.12,0-.23,0-.35,0-1.23,0-2.46,0-3.68a9.51,9.51,0,0,1,.13-1.6,11.77,11.77,0,0,1,4.36-7.52A11.59,11.59,0,0,1,1230,577h11.2c.86,0,.78.07.78-.79v-22.4c0-.84.08-.8-.78-.8h-11.13c-1.2,0-2.4,0-3.61.17a36,36,0,0,0-32.34,35.53c0,1.16,0,2.32,0,3.48,0,.89.08.81-.83.81H1179c-.9,0-.81-.1-.81.83v22.33c0,.9-.13.84.87.84h14.68c.36,0,.4,0,.42.39v38.81c0,.86.06.78-.79.78H1179c-1,0-.85-.1-.85.86v22.26c0,.19,0,.37,0,.56s.07.31.34.32h54.68c.9,0,.82.06.82-.83v-22.4c0-.86,0-.78-.8-.78h-14.33c-.89,0-.81.1-.81-.83V617.83c0-.18,0-.37,0-.55a.24.24,0,0,1,.25-.27h39c1,0,.89-.1.89.89v38.75c0,.29-.05.33-.32.34h-15.37c-.46,0-.46,0-.47.47,0,.11,0,.23,0,.35q0,11.19,0,22.39c0,.83-.1.8.78.8h54.26c.87,0,.78,0,.78-.8Z" transform="translate(-1178.17 -553)"/><path class="cls-1" d="M1270.07,577A12,12,0,1,0,1258,565,12,12,0,0,0,1270.07,577Z" transform="translate(-1178.17 -553)"/></svg>