<svg id="Layer_1" data-name="Layer 1" xmlns="http://www.w3.org/2000/svg" viewBox="0 0 128 122.16"><defs><style>.cls-1{fill:#fff;}</style></defs><path class="cls-1" d="M1230.25,845.44q.07,39.33,0,78.66c0,1.51.34,2,1.91,2,7.72-.08,15.44-.11,23.15,0,2,0,2.45-.45,2.44-2.42-.1-14.73,0-29.45-.07-44.18a16,16,0,0,1,4.59-11.75c4-4.08,8.91-5.11,14.33-3.83,5.2,1.24,7.7,5.05,9,9.9a34.12,34.12,0,0,1,.94,8.89c0,13.63,0,27.25-.07,40.87,0,2.18.63,2.54,2.61,2.51q11.22-.18,22.44,0c1.89,0,2.49-.32,2.48-2.37-.1-14.49-.06-29,0-43.47a66.33,66.33,0,0,0-.52-9.66c-1.18-8.13-3.83-15.58-10.06-21.3-13.17-12.09-34.17-9.54-45.69,6,0-3.54-.08-6.51,0-9.47.06-1.56-.24-2.15-2-2.13-7.87.11-15.75.08-23.62,0C1230.73,843.66,1230.24,843.89,1230.25,845.44Z" transform="translate(-1186 -803.92)"/><path class="cls-1" d="M1215.12,884.79c0-13.07,0-26.14,0-39.21,0-1.55-.41-2-1.94-1.93-7.88.07-15.75.08-23.62,0-1.55,0-1.93.4-1.93,1.94q.07,39.21,0,78.41c0,1.63.36,2.1,2,2.08q11.57-.15,23.15,0c1.85,0,2.31-.47,2.3-2.31C1215.08,910.77,1215.12,897.78,1215.12,884.79Z" transform="translate(-1186 -803.92)"/><path class="cls-1" d="M1204.17,804.14c-7.79-1.22-15.15,2.77-17.36,9.41-3.26,9.79,3.68,18.84,14.45,18.86,8.88,0,15-5.21,15.64-13.33C1217.48,811.62,1212.18,805.4,1204.17,804.14Z" transform="translate(-1186 -803.92)"/></svg>