<svg id="Layer_1" data-name="Layer 1" xmlns="http://www.w3.org/2000/svg" viewBox="0 0 127.98 128"><defs><style>.cls-1{fill:#fff;}</style></defs><path class="cls-1" d="M1301.09,69.65C1296.76,51.69,1282,40,1263.46,40q-25.44,0-50.88,0a39.11,39.11,0,0,0-8.84.87A37.75,37.75,0,0,0,1174,78.26c0,17.14,0,34.29,0,51.43a38.26,38.26,0,0,0,.85,8.48A37.76,37.76,0,0,0,1212,168c17.33.06,34.65,0,52,0a36.49,36.49,0,0,0,12.3-2c16-5.74,25.7-19.56,25.71-36.62q0-12.63,0-25.26,0-12.83,0-25.63A37.88,37.88,0,0,0,1301.09,69.65Zm-10.75,60.27a25.85,25.85,0,0,1-20.5,25.82,25.34,25.34,0,0,1-5.76.61c-17.38,0-34.76,0-52.14,0-12.68,0-22.76-8.13-25.66-20.45a25.79,25.79,0,0,1-.63-5.94c0-17.32,0-34.64,0-52a25.82,25.82,0,0,1,20.58-25.74,27.22,27.22,0,0,1,6.31-.59h25.61c8.67,0,17.33,0,26,0a25.85,25.85,0,0,1,25.59,20.55,26.33,26.33,0,0,1,.6,5.94C1290.35,95.4,1290.38,112.66,1290.34,129.92Z" transform="translate(-1174.01 -40)"/><path class="cls-1" d="M1238,69.1A34.9,34.9,0,1,0,1272.89,104,35,35,0,0,0,1238,69.1Zm-.15,58.16a23.27,23.27,0,1,1,23.37-23.2A23.22,23.22,0,0,1,1237.89,127.26Z" transform="translate(-1174.01 -40)"/><path class="cls-1" d="M1272.38,64.37a5.27,5.27,0,1,0,5.24,5.34A5.29,5.29,0,0,0,1272.38,64.37Z" transform="translate(-1174.01 -40)"/></svg>